HIERARCHY
ROOT hip
{
  OFFSET 0 0 0
  CHANNELS 6 Xposition Yposition Zposition Zrotation Yrotation Xrotation
  JOINT abdomen
  {
    OFFSET 0 20.6881 -0.73152
    CHANNELS 3 Zrotation Xrotation Yrotation
    JOINT chest
    {
      OFFSET 0 11.7043 -0.48768
      CHANNELS 3 Zrotation Xrotation Yrotation
      JOINT neck
      {
        OFFSET 0 22.1894 -2.19456
        CHANNELS 3 Zrotation Xrotation Yrotation
        JOINT head
        {
          OFFSET -0.24384 7.07133 1.2192
          CHANNELS 3 Zrotation Xrotation Yrotation
          JOINT leftEye
          {
            OFFSET 4.14528 8.04674 8.04672
            CHANNELS 3 Zrotation Xrotation Yrotation
            End Site
            {
              OFFSET 1 0 0
            }
          }
          JOINT rightEye
          {
            OFFSET -3.6576 8.04674 8.04672
            CHANNELS 3 Zrotation Xrotation Yrotation
            End Site
            {
              OFFSET 1 0 0
            }
          }
        }
      }
      JOINT rCollar
      {
        OFFSET -2.68224 19.2634 -4.8768
        CHANNELS 3 Zrotation Xrotation Yrotation
        JOINT rShldr
        {
          OFFSET -8.77824 -1.95073 1.46304
          CHANNELS 3 Zrotation Xrotation Yrotation
          JOINT rForeArm
          {
            OFFSET -28.1742 -1.7115 0.48768
            CHANNELS 3 Zrotation Xrotation Yrotation
            JOINT rHand
            {
              OFFSET -22.5879 0.773209 7.07136
              CHANNELS 3 Zrotation Xrotation Yrotation
              JOINT rThumb1
              {
                OFFSET -1.2192 -0.487915 3.41376
                CHANNELS 3 Zrotation Xrotation Yrotation
                JOINT rThumb2
                {
                  OFFSET -3.37035 -0.52449 3.41376
                  CHANNELS 3 Zrotation Xrotation Yrotation
                  End Site
                  {
                    OFFSET -1.78271 -1.18214 1.43049
                  }
                }
              }
              JOINT rIndex1
              {
                OFFSET -7.75947 0.938293 5.60832
                CHANNELS 3 Zrotation Xrotation Yrotation
                JOINT rIndex2
                {
                  OFFSET -2.54057 -0.884171 1.56538
                  CHANNELS 3 Zrotation Xrotation Yrotation
                  End Site
                  {
                    OFFSET -1.62519 -0.234802 1.16502
                  }
                }
              }
              JOINT rMid1
              {
                OFFSET -8.24714 1.18213 3.41376
                CHANNELS 3 Zrotation Xrotation Yrotation
                JOINT rMid2
                {
                  OFFSET -3.10165 -0.590103 1.0647
                  CHANNELS 3 Zrotation Xrotation Yrotation
                  End Site
                  {
                    OFFSET -2.48547 -0.328903 0.83742
                  }
                }
              }
              JOINT rRing1
              {
                OFFSET -8.82822 0.546677 1.51678
                CHANNELS 3 Zrotation Xrotation Yrotation
                JOINT rRing2
                {
                  OFFSET -2.60934 -0.819778 -0.0198488
                  CHANNELS 3 Zrotation Xrotation Yrotation
                  End Site
                  {
                    OFFSET -2.33842 -0.294052 0.168128
                  }
                }
              }
              JOINT rPinky1
              {
                OFFSET -8.27202 -0.0477905 -0.4584
                CHANNELS 3 Zrotation Xrotation Yrotation
                JOINT rPinky2
                {
                  OFFSET -1.82734 -0.647385 -0.700984
                  CHANNELS 3 Zrotation Xrotation Yrotation
                  End Site
                  {
                    OFFSET -1.69225 -0.51767 -0.607171
                  }
                }
              }
            }
          }
        }
      }
      JOINT lCollar
      {
        OFFSET 2.68224 19.2634 -4.8768
        CHANNELS 3 Zrotation Xrotation Yrotation
        JOINT lShldr
        {
          OFFSET 8.77824 -1.95073 1.46304
          CHANNELS 3 Zrotation Xrotation Yrotation
          JOINT lForeArm
          {
            OFFSET 28.1742 -1.7115 0.48768
            CHANNELS 3 Zrotation Xrotation Yrotation
            JOINT lHand
            {
              OFFSET 22.5879 0.773209 7.07136
              CHANNELS 3 Zrotation Xrotation Yrotation
              JOINT lThumb1
              {
                OFFSET 1.2192 -0.487915 3.41376
                CHANNELS 3 Zrotation Xrotation Yrotation
                JOINT lThumb2
                {
                  OFFSET 3.37035 -0.52449 3.41376
                  CHANNELS 3 Zrotation Xrotation Yrotation
                  End Site
                  {
                    OFFSET 1.78271 -1.18214 1.43049
                  }
                }
              }
              JOINT lIndex1
              {
                OFFSET 7.75947 0.938293 5.60832
                CHANNELS 3 Zrotation Xrotation Yrotation
                JOINT lIndex2
                {
                  OFFSET 2.54057 -0.884171 1.56538
                  CHANNELS 3 Zrotation Xrotation Yrotation
                  End Site
                  {
                    OFFSET 1.62519 -0.234802 1.16502
                  }
                }
              }
              JOINT lMid1
              {
                OFFSET 8.24714 1.18213 3.41376
                CHANNELS 3 Zrotation Xrotation Yrotation
                JOINT lMid2
                {
                  OFFSET 3.10165 -0.590103 1.0647
                  CHANNELS 3 Zrotation Xrotation Yrotation
                  End Site
                  {
                    OFFSET 2.48547 -0.328903 0.83742
                  }
                }
              }
              JOINT lRing1
              {
                OFFSET 8.82822 0.546677 1.51678
                CHANNELS 3 Zrotation Xrotation Yrotation
                JOINT lRing2
                {
                  OFFSET 2.60934 -0.819778 -0.0198488
                  CHANNELS 3 Zrotation Xrotation Yrotation
                  End Site
                  {
                    OFFSET 2.33842 -0.294052 0.168128
                  }
                }
              }
              JOINT lPinky1
              {
                OFFSET 8.27202 -0.0477905 -0.4584
                CHANNELS 3 Zrotation Xrotation Yrotation
                JOINT lPinky2
                {
                  OFFSET 1.82734 -0.647385 -0.700984
                  CHANNELS 3 Zrotation Xrotation Yrotation
                  End Site
                  {
                    OFFSET 1.69225 -0.51767 -0.607171
                  }
                }
              }
            }
          }
        }
      }
    }
  }
  JOINT rButtock
  {
    OFFSET -8.77824 4.35084 1.2192
    CHANNELS 3 Zrotation Xrotation Yrotation
    JOINT rThigh
    {
      OFFSET 0 -1.70687 -2.19456
      CHANNELS 3 Zrotation Xrotation Yrotation
      JOINT rShin
      {
        OFFSET 0 -36.8199 0.73152
        CHANNELS 3 Zrotation Xrotation Yrotation
        JOINT rFoot
        {
          OFFSET 0.73152 -45.1104 -5.12064
          CHANNELS 3 Zrotation Xrotation Yrotation
          End Site
          {
            OFFSET -1.1221 -3.69964 12.103
          }
        }
      }
    }
  }
  JOINT lButtock
  {
    OFFSET 8.77824 4.35084 1.2192
    CHANNELS 3 Zrotation Xrotation Yrotation
    JOINT lThigh
    {
      OFFSET 0 -1.70687 -2.19456
      CHANNELS 3 Zrotation Xrotation Yrotation
      JOINT lShin
      {
        OFFSET 0 -36.8199 0.73152
        CHANNELS 3 Zrotation Xrotation Yrotation
        JOINT lFoot
        {
          OFFSET -0.73152 -45.1104 -5.12064
          CHANNELS 3 Zrotation Xrotation Yrotation
          End Site
          {
            OFFSET 1.1221 -3.69964 12.103
          }
        }
      }
    }
  }
}
MOTION
Frames:	4
Frame Time:	0.03333
6.1756169820873765 52.41170120239258 16.18036998808384 -7.140199989080429 -16.28720059990883 18.76249998807907 0.003906999882019591 9.852190241217613 7.688430100679398 3.5045699402689934 -9.598730206489563 2.1872200816869736 -2.8059800527989864 12.458399534225464 0.1314129971433431 6.912729889154434 -37.103201150894165 2.7616900764405727 0.0 0.0 0.0 0.0 0.0 0.0 1.199040866595169e-13 0.0 3.197442310920451e-13 36.162499487400055 36.83919936418533 53.564202189445496 -26.1175999045372 -23.75019907951355 57.206899523735046 -3.946639895439148 -47.7485990524292 -8.901029974222183 -3.65187879936002e-10 8.814708962745499e-09 -1.3988810110276972e-10 -6.227018900517578e-10 1.52095935845864e-08 -2.6410873488202924e-10 -3.65187879936002e-10 8.814708962745499e-09 -1.3988810110276972e-10 7.7309102565050125 5.474880114197731 0.41731400415301323 -3.65187879936002e-10 8.814708962745499e-09 -1.397282289872237e-10 2.905540131032467 0.9651830233633518 0.102901995414868 -3.65187879936002e-10 8.814708962745499e-09 -1.3988810110276972e-10 10.27859978377819 0.7318009994924068 0.025912300043273717 -3.65187879936002e-10 8.814708962745499e-09 -1.397282289872237e-10 2.221670038998127 -0.733487019315362 -0.2089200052432716 1.199040866595169e-13 0.0 3.197442310920451e-13 -42.35029935836792 20.204600393772125 -60.99379777908325 12.985999435186386 -6.16394966840744 -23.536598682403564 0.8210779912769794 24.829399287700653 -3.728399947285652 -3.3048364045384915e-09 -1.5176340184552828e-08 -4.958753407890981e-09 -5.806475300573766e-09 -2.5845565687632188e-08 -8.492886394151355e-09 -3.3048364045384915e-09 -1.5176340184552828e-08 -4.958753407890981e-09 -7.7309102565050125 5.474880114197731 -0.41731400415301323 -3.3048364045384915e-09 -1.5176340184552828e-08 -4.958753407890981e-09 -2.905540131032467 0.9651830233633518 -0.102901995414868 -3.3048364045384915e-09 -1.5176340184552828e-08 -4.958753407890981e-09 -10.27859978377819 0.7318009994924068 -0.025912300043273717 -3.3048364045384915e-09 -1.5176340184552828e-08 -4.958753407890981e-09 -2.221670038998127 -0.733487019315362 0.2089200052432716 0.0 0.0 0.0 -12.292699366807938 -0.8193550072610378 -2.16066000983119 -0.5466619832441211 59.03000235557556 3.089510165154934 2.233619950711727 4.5942699909210205 -16.54300019145012 0.0 0.0 0.0 69.23270165920258 -62.97080039978027 74.22310173511505 10.624300315976143 84.79459941387177 -11.167599856853485 6.693710088729858 -8.028670325875282 21.804299354553223
6.6169199968426256 52.62519836425781 17.77202095091343 -5.695900171995163 -15.308899730443954 17.955600321292877 -1.77989998832345 10.543699935078621 7.27947972714901 3.5162700712680817 -9.562580063939095 2.0268799737095833 -2.8201600536704063 12.673500627279282 -0.13099099975079298 6.9285401701927185 -37.4601012468338 2.2425399720668793 0.0 0.0 0.0 0.0 0.0 0.0 1.9984014443252818e-14 0.0 4.796163466380676e-13 27.66360104084015 36.556100249290466 63.35820257663727 -26.8520987033844 -25.855899453163147 60.65059840679169 -3.965039849281311 -47.8315007686615 -8.926449939608574 4.430855682358015e-10 6.868106083857128e-09 -1.1002398991877271e-09 8.026379560988062e-10 1.1720544534910005e-08 -1.8895285336384404e-09 4.430855682358015e-10 6.868106083857128e-09 -1.1002398991877271e-09 7.7309102565050125 5.474880114197731 0.41731400415301323 4.430855682358015e-10 6.868106083857128e-09 -1.1002398991877271e-09 2.905540131032467 0.9651830233633518 0.102901995414868 4.430855682358015e-10 6.868106083857128e-09 -1.1002398991877271e-09 10.27859978377819 0.7318009994924068 0.025912300043273717 4.430855682358015e-10 6.868106083857128e-09 -1.1002398991877271e-09 2.221670038998127 -0.733487019315362 -0.2089200052432716 1.9984014443252818e-14 0.0 4.796163466380676e-13 -41.706598699092865 21.22830033302307 -63.88749897480011 12.68409937620163 -5.940060317516327 -22.942001223564148 0.8060860354453325 24.620299637317657 -3.692679964005947 -4.779117102060582e-09 -1.3907595075579593e-08 -5.1453241667331895e-09 -8.3559159591573e-09 -2.3540849269920727e-08 -8.784812877138393e-09 -4.779117102060582e-09 -1.3907595075579593e-08 -5.1453241667331895e-09 -7.7309102565050125 5.474880114197731 -0.41731400415301323 -4.779117102060582e-09 -1.3907595075579593e-08 -5.1453241667331895e-09 -2.905540131032467 0.9651830233633518 -0.102901995414868 -4.779117102060582e-09 -1.3907595075579593e-08 -5.1453241667331895e-09 -10.27859978377819 0.7318009994924068 -0.025912300043273717 -4.779117102060582e-09 -1.3907595075579593e-08 -5.1453241667331895e-09 -2.221670038998127 -0.733487019315362 0.2089200052432716 0.0 0.0 0.0 -12.496100664138794 -6.5482297539711 -3.4467901289463043 -1.3118499889969826 69.27579939365387 3.7710601463913918 0.9277699794620275 2.0029900409281254 -9.720869958400726 0.0 0.0 0.0 62.597699761390686 -63.604000210762024 69.16710019111633 9.49547991156578 84.19979810714722 -9.970159828662872 7.012899667024612 -8.813840076327324 22.05320030450821
7.107780995473149 52.79059982299805 19.653889909386635 -4.121699966490269 -14.416799694299698 16.7842997610569 -3.8519099727272987 11.618900299072266 6.859109848737717 3.5119399800896645 -9.590699672698975 1.8566899560391903 -2.8781500831246376 12.849399894475937 -0.37552300840616226 7.187339812517166 -37.4401992559433 1.8216700293123722 0.0 0.0 0.0 0.0 0.0 0.0 2.9976021664879227e-14 0.0 7.993605777301127e-14 18.912600427865982 34.324899315834045 73.19170117378235 -27.477501332759857 -28.088999390602112 64.1729986667633 -3.7641001492738724 -46.937499046325684 -8.651259988546371 -4.2835734959112415e-11 3.432774065004196e-09 -8.462830436428703e-10 -4.374500761628042e-11 5.885851805942366e-09 -1.4623502408994682e-09 -4.2835734959112415e-11 3.432774065004196e-09 -8.463230116717568e-10 7.7309102565050125 5.474880114197731 0.41731400415301323 -4.2835734959112415e-11 3.432774065004196e-09 -8.462830436428703e-10 2.905540131032467 0.9651830233633518 0.102901995414868 -4.2835734959112415e-11 3.432774065004196e-09 -8.462830436428703e-10 10.27859978377819 0.7318009994924068 0.025912300043273717 -4.284572696633404e-11 3.432774065004196e-09 -8.462830436428703e-10 2.221670038998127 -0.733487019315362 -0.2089200052432716 2.9976021664879227e-14 0.0 7.993605777301127e-14 -40.95600128173828 22.223599702119827 -67.00619995594025 12.195100486278534 -5.589580088853836 -21.982399374246597 0.8758369646966457 25.593498945236206 -3.859329968690872 -3.469894371832538e-09 -3.100240064668469e-09 -1.8295365222797955e-09 -6.0265992196661955e-09 -5.0673065743467305e-09 -3.0865310307603977e-09 -3.469894371832538e-09 -3.100240064668469e-09 -1.8295365222797955e-09 -7.7309102565050125 5.474880114197731 -0.41731400415301323 -3.4698843798253165e-09 -3.100240064668469e-09 -1.8295365222797955e-09 -2.905540131032467 0.9651830233633518 -0.102901995414868 -3.4699043638397598e-09 -3.100240064668469e-09 -1.8295365222797955e-09 -10.27859978377819 0.7318009994924068 -0.025912300043273717 -3.4698843798253165e-09 -3.100240064668469e-09 -1.8295365222797955e-09 -2.221670038998127 -0.733487019315362 0.2089200052432716 0.0 0.0 0.0 -12.673799693584442 -12.419799864292145 -5.175910033285618 -3.4736501052975655 78.96170139312744 5.744200050830841 0.2577499975450337 -1.1367999762296677 -6.351100131869316 0.0 0.0 0.0 54.44419741630554 -63.751500248909 62.661901116371155 8.663409724831581 83.67479860782623 -9.085339978337288 7.434550300240517 -9.70821999013424 22.489900141954422
7.628359975919011 52.96379852294922 21.80026985704899 -2.313100006431341 -13.600599467754364 15.260099619626999 -6.0139598697423935 12.923100292682648 6.484890058636665 3.5008399933576584 -9.738429710268974 1.6970700211822987 -2.936979979276657 12.957600206136703 -0.6061349809169769 7.396190017461777 -37.230399549007416 1.404689960181713 0.0 0.0 0.0 0.0 0.0 0.0 3.9968028886505635e-14 0.0 -2.398081733190338e-13 10.931600332260132 30.542799532413483 82.1662974357605 -27.956999838352203 -30.361900627613068 67.82660186290741 -3.3899299800395966 -45.19250214099884 -8.133969828486443 -7.637490639922362e-10 1.944044925039634e-10 -4.82573980775669e-10 -1.2993206510714117e-09 4.220623850414995e-10 -8.545164575934905e-10 -7.637490639922362e-10 1.944044925039634e-10 -4.82573980775669e-10 7.7309102565050125 5.474880114197731 0.41731400415301323 -7.637490639922362e-10 1.944044925039634e-10 -4.82573980775669e-10 2.905540131032467 0.9651830233633518 0.102901995414868 -7.637490639922362e-10 1.944044925039634e-10 -4.82573980775669e-10 10.27859978377819 0.7318009994924068 0.025912300043273717 -7.637890320211227e-10 1.944044925039634e-10 -4.82573980775669e-10 2.221670038998127 -0.733487019315362 -0.2089200052432716 3.9968028886505635e-14 0.0 -2.398081733190338e-13 -39.44000065326691 23.455199003219604 -70.44160008430481 11.71810045838356 -5.252959839999676 -21.065699458122253 0.940724965184927 26.426300704479218 -4.005120098590851 -1.1356915408100576e-09 6.671143637504429e-09 1.596323073727035e-09 -1.9258195038673875e-09 1.1551719580893405e-08 2.780256025403105e-09 -1.1356915408100576e-09 6.671143637504429e-09 1.596323073727035e-09 -7.7309102565050125 5.474880114197731 -0.41731400415301323 -1.1356915408100576e-09 6.671143637504429e-09 1.596323073727035e-09 -2.905540131032467 0.9651830233633518 -0.102901995414868 -1.1356915408100576e-09 6.671143637504429e-09 1.596323073727035e-09 -10.27859978377819 0.7318009994924068 -0.025912300043273717 -1.1356915408100576e-09 6.671143637504429e-09 1.596323073727035e-09 -2.221670038998127 -0.733487019315362 0.2089200052432716 0.0 0.0 0.0 -12.867200374603271 -18.58560025691986 -7.278119847178459 -21.003300547599792 87.64329850673676 23.026399612426758 -0.18757100449874997 -4.418880008161068 -5.2972400933504105 0.0 0.0 0.0 45.47789990901947 -63.26950192451477 55.36329925060272 8.001480102539062 83.20379734039307 -8.406680077314377 7.964979931712151 -10.718999728560448 23.126800060272217
